<svg width="570" height="381" viewBox="0 0 570 381" fill="none" xmlns="http://www.w3.org/2000/svg">
<path d="M169.597 265.807L168.579 322.615L79.4276 322.827L79.2986 265.253L169.597 265.807Z" fill="#EBEBEB"/>
<path d="M117.077 322.668C116.956 322.668 117.077 309.984 117.373 294.34C117.669 278.695 117.973 266.019 118.087 266.027C118.201 266.034 118.087 278.703 117.791 294.347C117.495 309.992 117.191 322.668 117.077 322.668Z" fill="#E0E0E0"/>
<path d="M79.4272 322.827C79.5354 322.62 79.6571 322.419 79.7916 322.228L80.8922 320.565L85.0291 314.493L98.7909 294.492C104.165 286.696 109 279.622 112.454 274.46C114.185 271.887 115.551 269.777 116.492 268.327C116.94 267.621 117.297 267.052 117.562 266.642C117.679 266.437 117.813 266.244 117.965 266.065C117.867 266.276 117.758 266.481 117.638 266.68L116.629 268.41C115.733 269.928 114.397 272.023 112.704 274.627C109.319 279.827 104.522 286.931 99.1401 294.735C93.7583 302.538 88.8548 309.551 85.2796 314.622L81.0365 320.626L79.8675 322.243C79.7382 322.45 79.5909 322.646 79.4272 322.827Z" fill="#E0E0E0"/>
<path d="M117.077 322.668C116.924 322.494 116.786 322.306 116.668 322.106L115.559 320.459L111.529 314.387L98.1541 294.408C92.909 286.613 88.2028 279.531 84.8629 274.361C83.2006 271.773 81.8267 269.67 80.9538 268.213L79.9138 266.52C79.7831 266.33 79.6688 266.13 79.5723 265.921C79.7247 266.093 79.8619 266.278 79.9822 266.475L81.0904 268.122C82.062 269.587 83.4283 271.659 85.1134 274.194L98.4957 294.173C103.741 301.968 108.439 309.05 111.779 314.227C113.449 316.808 114.815 318.911 115.696 320.376L116.736 322.061C116.864 322.255 116.978 322.458 117.077 322.668Z" fill="#E0E0E0"/>
<path d="M126.281 316.22L140.595 316.477L140.647 313.548L126.334 313.291L126.281 316.22Z" fill="#E0E0E0"/>
<path d="M127.006 310.925C129.331 310.699 131.669 310.615 134.004 310.675C136.341 310.592 138.68 310.648 141.011 310.842C138.685 311.063 136.348 311.147 134.012 311.092C131.675 311.175 129.336 311.119 127.006 310.925Z" fill="#E0E0E0"/>
<path d="M146.035 265.48L145.641 287.409L142.551 284.958L138.543 287.28L138.938 265.351L146.035 265.48Z" fill="#E0E0E0"/>
<path d="M158.902 222.775L158.128 266.133L90.0928 266.292L89.9866 222.35L158.902 222.775Z" fill="#F5F5F5"/>
<path d="M118.823 266.171C118.732 266.171 118.823 256.493 119.051 244.553C119.278 232.613 119.506 222.942 119.597 222.942C119.688 222.942 119.597 232.62 119.37 244.56C119.142 256.5 118.906 266.171 118.823 266.171Z" fill="#E0E0E0"/>
<path d="M90.0925 266.292C90.1717 266.134 90.263 265.981 90.3658 265.837C90.5783 265.523 90.8592 265.098 91.2084 264.562C91.9674 263.446 93.0453 261.867 94.366 259.931C97.0683 256.007 100.773 250.633 104.871 244.697C108.97 238.761 112.659 233.311 115.293 229.41C116.607 227.436 117.654 225.834 118.375 224.726L119.187 223.436C119.281 223.284 119.382 223.137 119.491 222.995C119.42 223.161 119.336 223.321 119.24 223.474L118.481 224.787C117.798 225.918 116.781 227.55 115.491 229.531C112.902 233.501 109.244 238.928 105.137 244.879C101.031 250.83 97.2808 256.182 94.5558 260.06L91.3222 264.615C90.9427 265.131 90.6466 265.548 90.4265 265.852C90.3281 266.008 90.2164 266.155 90.0925 266.292Z" fill="#E0E0E0"/>
<path d="M118.823 266.171C118.703 266.04 118.596 265.898 118.505 265.746L117.662 264.486C116.903 263.37 115.878 261.791 114.588 259.855L104.356 244.606C100.355 238.662 96.765 233.22 94.2146 229.303C92.9469 227.33 91.9374 225.728 91.2314 224.612L90.4724 223.322C90.2978 223.026 90.2067 222.866 90.2143 222.866C90.3326 222.997 90.4369 223.139 90.5255 223.291L91.3757 224.544C92.1347 225.667 93.1595 227.239 94.4119 229.182L104.629 244.431C108.629 250.375 112.22 255.779 114.762 259.726C116.038 261.7 117.04 263.309 117.753 264.425L118.55 265.708C118.652 265.856 118.743 266.01 118.823 266.171Z" fill="#E0E0E0"/>
<path d="M126.352 260.938L137.274 261.156L137.319 258.917L126.396 258.699L126.352 260.938Z" fill="#E0E0E0"/>
<path d="M126.368 257.206C128.134 257.04 129.909 256.977 131.682 257.017C133.454 256.958 135.228 257.001 136.995 257.146C135.23 257.317 133.455 257.38 131.682 257.335C129.91 257.403 128.135 257.36 126.368 257.206Z" fill="#EBEBEB"/>
<path d="M145.147 222.532L144.844 239.27L142.491 237.395L139.432 239.171L139.728 222.434L145.147 222.532Z" fill="#E0E0E0"/>
<path d="M166.28 318.728C165.482 316.365 163.99 314.297 161.997 312.796C160.005 311.296 157.606 310.432 155.114 310.318L153.026 195.434H163.076V197.149H164.966V193.035H149.353C149.353 193.035 151.212 277.792 152.563 310.432C151.892 310.541 151.23 310.701 150.582 310.91C148.086 311.751 145.922 313.365 144.405 315.519C142.889 317.673 142.099 320.254 142.149 322.888L106.549 322.417L107.566 327.093L142.658 326.129C142.703 326.289 142.741 326.448 142.794 326.615C143.285 328.193 144.086 329.657 145.15 330.922C146.215 332.186 147.522 333.224 148.994 333.976C150.465 334.728 152.073 335.177 153.721 335.299C155.369 335.42 157.025 335.211 158.591 334.683C160.157 334.155 161.602 333.319 162.84 332.225C164.079 331.13 165.086 329.799 165.802 328.31C166.518 326.82 166.93 325.203 167.012 323.552C167.094 321.901 166.845 320.251 166.28 318.698V318.728Z" fill="#E0E0E0"/>
<path d="M113.373 333.932H115.255L118.884 326.812L115.885 326.896L113.373 333.932Z" fill="#E0E0E0"/>
<path d="M405.308 33.5338H369.663V43.3864H405.308V33.5338Z" fill="#EBEBEB"/>
<path d="M435.784 242.093H400.139V251.946H435.784V242.093Z" fill="#EBEBEB"/>
<path d="M396.26 43.3786H360.615V53.2313H396.26V43.3786Z" fill="#F5F5F5"/>
<path d="M413.096 252.257H387.485V262.11H413.096V252.257Z" fill="#F5F5F5"/>
<path d="M262.711 66.3175H185.924V223.345H262.711V66.3175Z" fill="#EBEBEB"/>
<path d="M224.287 66.3175C224.287 66.3175 208.544 137.548 185.894 142.413C185.894 142.413 195.003 192.382 195.875 223.345H185.924V66.3175H224.287Z" fill="#E0E0E0"/>
<path d="M224.575 66.3175C224.575 66.3175 240.318 137.548 262.999 142.413C262.999 142.413 253.89 192.382 253.025 223.345H262.999V66.3175H224.575Z" fill="#E0E0E0"/>
<path d="M225.722 66.0139H222.921V223.345H225.722V66.0139Z" fill="#FAFAFA"/>
<path d="M204.377 66.0139H203.686V223.345H204.377V66.0139Z" fill="#FAFAFA"/>
<path d="M245.829 66.0139H245.138V223.345H245.829V66.0139Z" fill="#FAFAFA"/>
<path d="M262.711 105.03V105.66L185.924 105.971V105.341L262.711 105.03Z" fill="#FAFAFA"/>
<path d="M262.711 183.152V183.767L185.924 184.078V183.463L262.711 183.152Z" fill="#FAFAFA"/>
<path d="M262.711 143.256H185.924V145.875H262.711V143.256Z" fill="#FAFAFA"/>
<path d="M263.85 224.483H184.816V65.179H263.85V224.483ZM187.063 222.206H261.572V67.4562H187.093L187.063 222.206Z" fill="#F5F5F5"/>
<path d="M487.415 66.3175H410.629V223.345H487.415V66.3175Z" fill="#EBEBEB"/>
<path d="M449.022 66.3175C449.022 66.3175 433.279 137.548 410.629 142.413C410.629 142.413 419.737 192.382 420.603 223.345H410.629V66.3175H449.022Z" fill="#E0E0E0"/>
<path d="M449.281 66.3175C449.281 66.3175 465.023 137.548 487.681 142.413C487.681 142.413 478.573 192.382 477.7 223.345H487.681V66.3175H449.281Z" fill="#E0E0E0"/>
<path d="M450.419 66.0139H447.618V223.345H450.419V66.0139Z" fill="#FAFAFA"/>
<path d="M429.074 66.0139H428.383V223.345H429.074V66.0139Z" fill="#FAFAFA"/>
<path d="M470.526 66.0139H469.836V223.345H470.526V66.0139Z" fill="#FAFAFA"/>
<path d="M487.415 105.03V105.66L410.629 105.971V105.341L487.415 105.03Z" fill="#FAFAFA"/>
<path d="M487.415 183.152V183.767L410.629 184.078V183.463L487.415 183.152Z" fill="#FAFAFA"/>
<path d="M487.415 143.256H410.629V145.875H487.415V143.256Z" fill="#FAFAFA"/>
<path d="M488.555 224.483H409.498V65.179H488.555V224.483ZM411.768 222.206H486.277V67.4562H411.775L411.768 222.206Z" fill="#F5F5F5"/>
<path d="M248.645 311.434C245.897 310.144 242.809 309.769 239.832 310.363C238.231 310.629 236.561 311.123 235.475 312.307C234.39 313.491 234.177 315.624 235.43 316.656C236.235 317.205 237.208 317.452 238.178 317.354C240.508 317.354 243.089 316.914 244.956 318.318C246.019 319.123 246.725 320.451 247.992 320.846C248.629 320.989 249.295 320.923 249.891 320.657C250.487 320.392 250.982 319.942 251.302 319.374C251.903 318.202 252.036 316.845 251.674 315.578C251.521 314.701 251.168 313.871 250.643 313.153C250.118 312.434 249.434 311.846 248.645 311.434Z" fill="#EBEBEB"/>
<path d="M254.793 299.569C253.154 301.915 249.966 301.141 248.486 299.706C247.006 298.271 246.383 296.207 245.814 294.233C244.516 289.679 243.203 284.98 244.174 280.38C244.399 278.975 245.011 277.661 245.943 276.585C246.41 276.062 247.006 275.669 247.672 275.447C248.338 275.225 249.05 275.18 249.738 275.317C251.34 275.743 252.342 277.314 253.063 278.817C255.193 283.236 256.308 288.075 256.327 292.981C256.327 295.258 256.069 297.657 254.809 299.539" fill="#EBEBEB"/>
<path d="M259.295 302.932C258.453 301.831 257.893 300.542 257.663 299.175C257.433 297.809 257.54 296.407 257.974 295.091C258.871 292.459 260.479 290.126 262.62 288.351C265.056 286.185 267.892 284.517 270.969 283.439C272.157 282.964 273.433 282.749 274.711 282.809C275.349 282.846 275.968 283.038 276.515 283.369C277.061 283.7 277.518 284.159 277.846 284.707C278.727 286.377 277.884 288.404 276.973 290.02C275.378 292.946 273.551 295.738 271.508 298.37C269.876 300.48 268.001 302.56 265.504 303.517C263.007 304.473 260.411 304.359 259.09 302.629" fill="#EBEBEB"/>
<path d="M254.908 334.912C254.815 334.565 254.764 334.208 254.756 333.849C254.68 333.09 254.589 332.095 254.475 330.942C254.361 329.788 254.156 328.262 253.822 326.676C253.447 324.964 252.939 323.284 252.304 321.651C251.667 320.018 250.8 318.485 249.731 317.096C248.864 315.968 247.757 315.047 246.49 314.402C245.628 313.972 244.703 313.685 243.749 313.552C243.393 313.539 243.039 313.485 242.694 313.392C243.053 313.356 243.414 313.356 243.772 313.392C244.759 313.47 245.724 313.728 246.619 314.151C247.959 314.78 249.133 315.713 250.05 316.876C251.161 318.282 252.056 319.845 252.706 321.514C253.358 323.173 253.865 324.885 254.224 326.63C254.498 328.055 254.688 329.495 254.794 330.942C254.885 332.179 254.915 333.173 254.93 333.864C254.957 334.213 254.949 334.564 254.908 334.912Z" fill="#E0E0E0"/>
<path d="M254.703 332.672C254.685 332.508 254.685 332.343 254.703 332.179C254.703 331.807 254.703 331.344 254.703 330.767C254.703 329.545 254.703 327.731 254.642 325.575C254.528 321.195 254.156 315.153 253.427 308.504C252.699 301.855 251.72 295.873 250.831 291.584C250.619 290.507 250.414 289.535 250.209 288.692C250.004 287.85 249.86 287.106 249.708 286.514C249.556 285.922 249.465 285.504 249.374 285.14C249.327 284.982 249.299 284.819 249.291 284.654C249.361 284.803 249.417 284.958 249.458 285.117C249.571 285.474 249.7 285.922 249.867 286.476C250.034 287.03 250.239 287.789 250.452 288.632C250.664 289.474 250.907 290.446 251.135 291.516C252.342 297.109 253.252 302.762 253.86 308.451C254.619 315.115 254.923 321.18 254.953 325.575C254.953 327.769 254.953 329.545 254.87 330.775C254.87 331.344 254.809 331.815 254.786 332.187C254.779 332.352 254.751 332.515 254.703 332.672Z" fill="#E0E0E0"/>
<path d="M254.65 320.975C254.612 320.485 254.612 319.993 254.65 319.503C254.703 318.554 254.832 317.18 255.098 315.502C255.423 313.539 255.856 311.596 256.396 309.68C257.044 307.328 257.859 305.025 258.832 302.788C260.537 298.669 262.978 294.896 266.036 291.653C266.561 291.096 267.121 290.574 267.713 290.089C267.971 289.869 268.199 289.649 268.435 289.482L269.087 289.026C269.479 288.737 269.896 288.483 270.332 288.267C268.897 289.388 267.536 290.6 266.256 291.895C263.317 295.171 260.958 298.924 259.28 302.993C258.318 305.215 257.502 307.497 256.836 309.825C256.28 311.721 255.819 313.644 255.455 315.586C255.143 317.248 254.969 318.622 254.863 319.548C254.831 320.029 254.76 320.506 254.65 320.975Z" fill="#E0E0E0"/>
<path d="M476.683 335.481C476.683 335.587 390.863 335.678 285.02 335.678C179.176 335.678 93.3416 335.587 93.3416 335.481C93.3416 335.375 179.116 335.284 285.02 335.284C390.924 335.284 476.683 335.375 476.683 335.481Z" fill="#263238"/>
<path d="M423.01 310.698C411.973 303.471 409.172 289.641 409.293 277.147C409.293 275.06 409.035 272.874 409.992 271.021C410.948 269.169 413.263 267.864 415.176 268.691C416.763 269.382 417.453 271.166 418.402 272.638C419.628 274.605 421.386 276.184 423.473 277.193C424.831 277.853 426.509 278.233 427.815 277.481C429.614 276.441 429.765 273.951 429.705 271.879C429.583 268.018 429.464 264.157 429.348 260.296C429.167 258.227 429.328 256.142 429.826 254.125C430.433 252.144 431.83 250.276 433.819 249.677C435.807 249.077 438.297 250.155 438.768 252.174C438.868 253.03 438.911 253.893 438.897 254.755C438.895 255.186 439.021 255.608 439.259 255.967C439.496 256.326 439.835 256.607 440.233 256.774C441.083 257.002 441.903 256.394 442.51 255.772C444.628 253.624 446.032 250.891 447.345 248.181C448.658 245.471 449.918 242.686 451.831 240.363C453.744 238.04 456.386 236.158 459.422 235.915C462.458 235.672 465.677 237.433 466.504 240.325C467.331 243.217 465.684 246.238 463.862 248.675C461.154 252.243 457.945 255.403 454.336 258.057C453.629 258.46 453.07 259.08 452.742 259.825C452.325 261.222 453.683 262.565 455.072 262.983C456.651 263.461 458.344 263.256 459.991 263.408C461.638 263.56 463.422 264.228 464.082 265.746C464.993 267.841 463.255 270.103 461.524 271.606C458.045 274.603 454.082 276.988 449.805 278.658C448.286 279.25 446.654 279.781 445.44 280.882C444.225 281.982 443.512 283.865 444.301 285.307C445.091 286.749 447.034 287.167 448.643 286.825C450.252 286.484 451.679 285.588 453.198 284.981C456.052 283.834 459.786 283.941 461.691 286.362C462.277 287.192 462.66 288.148 462.807 289.153C462.955 290.157 462.864 291.183 462.542 292.146C461.89 294.066 460.858 295.835 459.505 297.346C455.042 302.887 449.195 307.152 442.555 309.711C435.914 312.163 429.727 312.937 423.01 310.69" fill="#0399C9"/>
<path d="M463.391 237.562C463.391 237.562 463.33 237.638 463.194 237.767L462.587 238.329C462.048 238.822 461.251 239.551 460.256 240.515C457.435 243.225 454.824 246.145 452.445 249.251C450.927 251.21 449.356 253.426 447.716 255.832C446.077 258.239 444.339 260.827 442.623 263.613C440.803 266.514 439.145 269.514 437.659 272.6C436.9 274.202 436.209 275.879 435.511 277.587C434.812 279.295 434.114 281.026 433.408 282.779C430.698 289.349 428.361 296.068 426.41 302.902C424.844 308.49 423.812 314.213 423.328 319.996C423.017 323.895 423.047 327.814 423.419 331.708C423.563 333.082 423.7 334.152 423.814 334.874C423.859 335.218 423.897 335.491 423.928 335.693C423.939 335.787 423.939 335.881 423.928 335.974C423.895 335.886 423.872 335.794 423.859 335.701C423.821 335.496 423.768 335.23 423.707 334.881C423.563 334.168 423.404 333.097 423.237 331.723C422.805 327.822 422.734 323.888 423.024 319.973C423.482 314.168 424.499 308.421 426.06 302.811C427.997 295.956 430.328 289.22 433.044 282.635C433.75 280.882 434.456 279.151 435.146 277.435C435.837 275.72 436.528 274.042 437.31 272.433C438.81 269.34 440.48 266.332 442.312 263.423C444.043 260.637 445.788 258.057 447.443 255.65C449.098 253.244 450.684 251.035 452.218 249.084C454.626 245.987 457.275 243.086 460.142 240.408C461.159 239.46 461.972 238.746 462.526 238.275L463.163 237.736L463.391 237.562Z" fill="white"/>
<path d="M437.439 272.403C437.334 272.118 437.258 271.823 437.211 271.522C437.09 270.953 436.938 270.118 436.764 269.093C436.414 267.036 436.005 264.182 435.625 261.032C435.245 257.882 434.798 255.035 434.418 252.986C434.228 251.961 434.069 251.141 433.955 250.564C433.865 250.286 433.809 249.998 433.788 249.707C433.91 249.985 434.004 250.275 434.069 250.572C434.236 251.134 434.433 251.954 434.653 252.971C435.101 255.013 435.572 257.859 435.982 261.017L437.006 269.093C437.136 270.057 437.242 270.877 437.333 271.537C437.403 271.821 437.438 272.111 437.439 272.403Z" fill="white"/>
<path d="M464.318 266.778C463.966 266.858 463.608 266.909 463.248 266.93C462.557 267.006 461.555 267.112 460.325 267.287C457.858 267.606 454.465 268.167 450.753 268.957C447.042 269.746 443.709 270.596 441.318 271.287C440.119 271.621 439.155 271.917 438.487 272.122C438.147 272.247 437.796 272.341 437.439 272.403C437.759 272.228 438.094 272.086 438.441 271.978C439.094 271.735 440.043 271.393 441.235 271.021C443.611 270.262 446.943 269.367 450.67 268.577C453.847 267.891 457.057 267.369 460.287 267.013C461.532 266.877 462.564 266.809 463.232 266.778C463.593 266.739 463.957 266.739 464.318 266.778Z" fill="white"/>
<path d="M426.402 302.295C426.327 302.196 426.263 302.089 426.212 301.976L425.727 301.019C425.309 300.192 424.732 298.978 424.049 297.467C422.668 294.431 420.899 290.21 419.009 285.512C417.119 280.813 415.396 276.57 414.083 273.526L412.534 269.921L412.117 268.942C412.059 268.828 412.015 268.709 411.988 268.585C411.988 268.585 412.071 268.691 412.185 268.904C412.299 269.116 412.473 269.48 412.671 269.86C413.088 270.687 413.657 271.902 414.348 273.412C415.722 276.449 417.498 280.669 419.388 285.368C421.278 290.066 423.002 294.309 424.315 297.353L425.878 300.959C426.045 301.353 426.182 301.718 426.296 301.938C426.349 302.051 426.385 302.171 426.402 302.295Z" fill="white"/>
<path d="M462.01 290.028C461.895 290.088 461.776 290.139 461.653 290.18L460.621 290.552L456.826 291.865C453.607 292.981 449.174 294.575 444.286 296.344C439.398 298.112 434.95 299.661 431.708 300.708C430.084 301.24 428.771 301.649 427.852 301.915L426.797 302.219C426.675 302.262 426.547 302.287 426.418 302.295C426.529 302.227 426.649 302.176 426.775 302.143L427.807 301.771L431.602 300.45C434.821 299.334 439.253 297.748 444.142 295.979C449.03 294.211 453.478 292.662 456.719 291.607C458.344 291.083 459.657 290.673 460.575 290.408L461.631 290.104C461.753 290.061 461.881 290.035 462.01 290.028Z" fill="white"/>
<path d="M118.785 129.836C142.417 129.836 161.574 110.679 161.574 87.0476C161.574 63.4163 142.417 44.2593 118.785 44.2593C95.154 44.2593 75.9971 63.4163 75.9971 87.0476C75.9971 110.679 95.154 129.836 118.785 129.836Z" fill="#FAFAFA"/>
<path d="M118.778 130.481C110.188 130.481 101.79 127.934 94.6476 123.161C87.505 118.389 81.9381 111.605 78.6507 103.669C75.3633 95.7323 74.5032 86.9993 76.1791 78.574C77.855 70.1487 81.9916 62.4096 88.0659 56.3353C94.1402 50.261 101.879 46.1244 110.305 44.4485C118.73 42.7726 127.463 43.6327 135.399 46.9201C143.336 50.2075 150.119 55.7745 154.892 62.9171C159.664 70.0597 162.212 78.4571 162.212 87.0474C162.197 98.5624 157.617 109.602 149.475 117.744C141.332 125.886 130.293 130.467 118.778 130.481ZM118.778 44.9043C110.441 44.9043 102.291 47.3766 95.3596 52.0085C88.4277 56.6405 83.0252 63.2239 79.8351 70.9264C76.6451 78.6289 75.8108 87.1044 77.4378 95.281C79.0648 103.458 83.08 110.968 88.9757 116.863C94.8713 122.757 102.383 126.771 110.559 128.397C118.736 130.022 127.212 129.186 134.914 125.995C142.616 122.804 149.198 117.4 153.829 110.467C158.459 103.535 160.93 95.3844 160.929 87.0474C160.917 75.8728 156.472 65.1594 148.569 57.2584C140.667 49.3574 129.953 44.9144 118.778 44.9043Z" fill="#263238"/>
<path d="M119.241 57.338C119.075 55.9784 119.019 54.6077 119.074 53.2391C119.019 51.8705 119.075 50.4998 119.241 49.1402C119.407 50.4998 119.463 51.8705 119.408 53.2391C119.462 54.6077 119.406 55.9784 119.241 57.338Z" fill="#263238"/>
<path d="M97.1143 65.422C96.1327 64.6509 95.2231 63.7922 94.3969 62.8564C93.4916 61.9971 92.6635 61.0598 91.9224 60.0555C92.904 60.8266 93.8136 61.6853 94.6398 62.6211C95.5451 63.4804 96.3732 64.4177 97.1143 65.422Z" fill="#263238"/>
<path d="M91.4511 87.9434C89.7409 88.1093 88.0219 88.165 86.3046 88.1104C84.5874 88.165 82.8683 88.1093 81.1582 87.9434C82.8683 87.7775 84.5874 87.7217 86.3046 87.7764C88.0219 87.7217 89.7409 87.7775 91.4511 87.9434Z" fill="#263238"/>
<path d="M97.0155 108.946C96.3595 109.854 95.6309 110.707 94.837 111.497C94.1232 112.366 93.3077 113.145 92.408 113.82C93.0709 112.915 93.8017 112.063 94.5941 111.269C95.3038 110.399 96.117 109.619 97.0155 108.946Z" fill="#263238"/>
<path d="M145.603 113.387C151.846 107.102 155.694 98.8316 156.48 90.008C157.816 74.0677 150.863 65.718 145.717 60.1085L141.246 64.3896C145.8 69.2704 152.859 78.9712 150.947 90.4786C149.754 97.6379 146.547 104.31 141.701 109.713L145.603 113.387Z" fill="#0B0237"/>
<path d="M117.738 92.528C116.765 92.3363 115.872 91.8605 115.17 91.1608C114.468 90.461 113.989 89.5688 113.794 88.5969C113.6 87.6251 113.698 86.6174 114.076 85.7012C114.454 84.785 115.095 84.0017 115.919 83.4502C116.743 82.8987 117.711 82.6038 118.702 82.603C119.693 82.6021 120.663 82.8953 121.487 83.4454C122.312 83.9954 122.954 84.7777 123.334 85.6932C123.714 86.6087 123.813 87.6163 123.62 88.5885C123.493 89.2337 123.24 89.8475 122.876 90.3948C122.511 90.9421 122.042 91.4121 121.496 91.778C120.95 92.1439 120.336 92.3985 119.692 92.5272C119.047 92.6559 118.383 92.6562 117.738 92.528Z" fill="#0399C9"/>
<path d="M136.532 99.443L107.49 77.1949L104.727 81.4077L136.532 99.443Z" fill="#0399C9"/>
<path d="M156.624 86.6909C156.624 86.6909 156.624 86.4859 156.624 86.076C156.624 85.6661 156.624 85.0665 156.541 84.2771C156.177 78.8818 154.661 73.6273 152.094 68.8677C149.528 64.108 145.971 59.9539 141.663 56.6852C136.987 53.134 131.547 50.7221 125.776 49.6411C122.574 49.0453 119.308 48.8667 116.06 49.1097C114.361 49.2367 112.672 49.4751 111.005 49.8233C109.295 50.1901 107.611 50.6694 105.964 51.2579C98.6943 53.9059 92.4147 58.7262 87.9775 65.0648C83.5402 71.4034 81.1601 78.9535 81.1601 86.6909C81.1601 94.4283 83.5402 101.978 87.9775 108.317C92.4147 114.656 98.6943 119.476 105.964 122.124C107.612 122.711 109.296 123.193 111.005 123.566C115.873 124.579 120.892 124.638 125.784 123.741C131.552 122.658 136.989 120.246 141.663 116.697C145.969 113.427 149.525 109.272 152.092 104.513C154.658 99.7533 156.175 94.4995 156.541 89.1047C156.609 88.3456 156.594 87.708 156.624 87.3057C156.655 86.9034 156.624 86.6909 156.624 86.6909C156.624 86.6909 156.624 87.5258 156.571 89.1047C156.444 91.4089 156.101 93.6962 155.546 95.9362C154.674 99.5006 153.283 102.917 151.417 106.077C148.92 110.256 145.648 113.92 141.777 116.871C137.078 120.458 131.607 122.898 125.799 123.999C122.573 124.607 119.281 124.791 116.007 124.545C114.294 124.432 112.592 124.196 110.914 123.839C109.19 123.475 107.493 122.993 105.835 122.397C98.4979 119.736 92.158 114.879 87.6775 108.488C83.1971 102.097 80.7935 94.481 80.7935 86.6757C80.7935 78.8704 83.1971 71.2545 87.6775 64.8633C92.158 58.4721 98.4979 53.6157 105.835 50.9543C107.493 50.3587 109.19 49.8768 110.914 49.5121C112.594 49.1626 114.295 48.9268 116.007 48.8061C119.281 48.5629 122.573 48.7492 125.799 49.3602C128.813 49.9154 131.745 50.8462 134.528 52.1308C137.102 53.3004 139.534 54.7596 141.777 56.4802C145.651 59.4406 148.923 63.1147 151.417 67.3044C153.275 70.4518 154.666 73.8525 155.546 77.4C156.101 79.6401 156.444 81.9273 156.571 84.2315C156.655 85.8559 156.624 86.6909 156.624 86.6909Z" fill="#263238"/>
<path d="M156.639 86.4479C155.301 86.6184 153.95 86.6743 152.601 86.6149C151.25 86.6741 149.897 86.6182 148.555 86.4479C149.897 86.2822 151.25 86.2264 152.601 86.281C153.95 86.2262 155.3 86.2821 156.639 86.4479Z" fill="#0B0237"/>
<path d="M145.61 113.387C144.472 112.531 143.406 111.585 142.422 110.556C141.359 109.607 140.37 108.579 139.462 107.481C140.6 108.337 141.666 109.284 142.65 110.313C143.715 111.259 144.705 112.287 145.61 113.387Z" fill="#263238"/>
<path d="M145.717 60.1085C145.823 60.2072 144.578 61.4824 142.976 62.9474C142.04 63.8743 141.024 64.7176 139.94 65.4675C140.799 64.469 141.739 63.5424 142.749 62.6969C143.553 61.9379 144.267 61.3079 144.829 60.8448C145.111 60.5837 145.408 60.3379 145.717 60.1085Z" fill="#263238"/>
<path d="M138.953 100.931C138.316 101.601 137.512 102.091 136.624 102.349C135.736 102.608 134.795 102.627 133.898 102.403C134.784 102.35 135.665 102.226 136.532 102.031C137.366 101.728 138.176 101.36 138.953 100.931Z" fill="#263238"/>
<path d="M140.267 102.1C140.016 102.431 139.698 102.705 139.333 102.904C138.493 103.443 137.553 103.809 136.57 103.982C135.586 104.152 134.578 104.129 133.602 103.914C133.193 103.851 132.802 103.7 132.456 103.474C133.78 103.826 135.164 103.885 136.513 103.648C137.862 103.411 139.143 102.883 140.267 102.1Z" fill="#263238"/>
<path d="M109.403 74.136C108.533 73.969 107.648 73.8927 106.762 73.9083C105.883 74.0373 105.021 74.2587 104.189 74.5687C104.896 73.9574 105.797 73.616 106.732 73.6047C107.657 73.465 108.602 73.6529 109.403 74.136Z" fill="#263238"/>
<path d="M109.98 73.0126C108.729 72.7886 107.455 72.7071 106.185 72.7697C104.928 72.9487 103.696 73.2696 102.511 73.7261C103.578 72.9584 104.842 72.5107 106.155 72.4357C107.459 72.2553 108.787 72.4556 109.98 73.0126Z" fill="#263238"/>
<path d="M171.328 332.855L172.565 325.127L158.727 322.85L156.769 334.388L157.611 334.585C161.407 335.443 176.937 338.426 179.624 338.039C182.622 337.583 171.328 332.855 171.328 332.855Z" fill="#036585"/>
<path d="M180.065 337.356C180.065 337.485 174.85 336.764 168.458 335.739C162.067 334.714 156.906 333.781 156.928 333.651C156.951 333.522 162.143 334.244 168.534 335.268C174.926 336.293 180.087 337.227 180.065 337.356Z" fill="white"/>
<path d="M171.32 334.472C171.213 334.396 171.373 334.001 171.737 333.644C172.102 333.287 172.496 333.136 172.572 333.242C172.648 333.348 172.405 333.659 172.071 334.001C171.737 334.342 171.426 334.555 171.32 334.472Z" fill="#263238"/>
<path d="M172.117 335.124C172.003 335.056 172.117 334.608 172.489 334.175C172.861 333.743 173.248 333.5 173.331 333.598C173.415 333.697 173.187 334.061 172.861 334.471C172.534 334.881 172.238 335.192 172.117 335.124Z" fill="#263238"/>
<path d="M161.111 334.267C161.05 334.267 160.876 334.062 160.625 333.674C160.334 333.171 159.993 332.698 159.608 332.263C159.23 331.846 158.748 331.537 158.211 331.367C157.801 331.245 157.513 331.268 157.505 331.192C157.498 331.116 157.779 330.987 158.264 331.04C158.911 331.135 159.504 331.452 159.942 331.936C160.36 332.401 160.69 332.939 160.913 333.523C161.103 333.963 161.164 334.244 161.111 334.267Z" fill="#263238"/>
<path d="M171.593 333.029C171.639 333.143 171.365 333.378 170.94 333.454C170.515 333.53 170.181 333.454 170.181 333.302C170.181 333.151 170.485 333.067 170.849 332.991C171.213 332.915 171.54 332.9 171.593 333.029Z" fill="#263238"/>
<path d="M171.495 332.24C171.495 332.376 171.1 332.429 170.629 332.361C170.159 332.293 169.809 332.133 169.87 332.004C169.931 331.875 170.28 331.822 170.728 331.89C171.176 331.959 171.502 332.11 171.495 332.24Z" fill="#263238"/>
<path d="M220.279 331.185L219.991 323.366L205.971 323.792L206.282 335.489H207.155C211.034 335.595 226.891 335.489 229.418 334.601C232.272 333.629 220.279 331.185 220.279 331.185Z" fill="#036585"/>
<path d="M229.722 333.902C229.722 334.039 224.492 334.335 218.025 334.578C211.558 334.82 206.313 334.896 206.305 334.767C206.297 334.638 211.542 334.335 218.01 334.099C224.477 333.864 229.714 333.773 229.722 333.902Z" fill="white"/>
<path d="M220.583 332.771C220.461 332.718 220.545 332.3 220.833 331.883C221.122 331.465 221.478 331.23 221.592 331.321C221.706 331.412 221.516 331.761 221.251 332.149C220.985 332.536 220.704 332.832 220.583 332.771Z" fill="#263238"/>
<path d="M221.494 333.257C221.372 333.219 221.418 332.748 221.676 332.255C221.934 331.761 222.283 331.45 222.389 331.496C222.496 331.541 222.336 331.974 222.101 332.437C221.866 332.9 221.623 333.302 221.494 333.257Z" fill="#263238"/>
<path d="M210.526 334.562C210.472 334.562 210.26 334.403 209.941 334.069C209.553 333.636 209.126 333.24 208.666 332.885C208.221 332.555 207.698 332.346 207.148 332.278C206.723 332.278 206.442 332.316 206.389 332.278C206.336 332.24 206.616 332.02 207.148 331.974C207.801 331.938 208.446 332.135 208.97 332.528C209.47 332.902 209.897 333.365 210.23 333.894C210.457 334.251 210.579 334.524 210.526 334.562Z" fill="#263238"/>
<path d="M220.568 331.306C220.644 331.412 220.416 331.693 220.022 331.852C219.627 332.012 219.262 331.974 219.262 331.852C219.262 331.731 219.513 331.556 219.862 331.412C220.211 331.268 220.492 331.192 220.568 331.306Z" fill="#263238"/>
<path d="M220.325 330.555C220.325 330.684 219.968 330.813 219.498 330.836C219.027 330.858 218.648 330.775 218.648 330.638C218.648 330.502 219.02 330.38 219.475 330.357C219.931 330.335 220.302 330.426 220.325 330.555Z" fill="#263238"/>
<path d="M239.286 136.553L238.527 134.003C238.256 132.531 237.842 131.09 237.29 129.699C237.026 128.998 236.647 128.346 236.166 127.771C235.602 127.036 234.94 126.379 234.2 125.82C233.441 125.373 233.631 124.302 234.39 124.219C235.149 124.135 237.191 125.327 238.755 127.597C240.318 129.866 240.607 125.593 240.743 124.037C240.88 122.48 241.502 117.691 242.026 117.372C242.785 116.894 243.438 117.622 243.271 119.171C243.104 120.719 242.914 125.41 243.734 125.464C244.554 125.517 245.123 117.585 245.123 117.585C245.123 117.585 244.971 115.861 245.928 115.892C247.643 115.945 246.406 124.317 246.269 125.107C246.178 125.661 247.066 125.744 247.142 125.152C247.218 124.56 247.529 117.22 249.275 117.258C250.619 117.258 248.326 124.15 249.101 125.729C249.875 127.308 250.308 120.325 251.59 120.416C252.061 120.416 252.418 120.53 251.59 124.484C250.763 128.439 246.679 139.089 246.679 139.089L239.225 136.424" fill="#FFBE9D"/>
<path d="M188.004 134.459L200.619 135.392C200.786 133.935 201.037 128.265 201.037 128.265C201.037 128.265 206.305 127.771 206.684 122.557C207.064 117.342 206.912 105.311 206.912 105.311C204.024 103.853 200.8 103.193 197.572 103.398C194.344 103.604 191.23 104.668 188.55 106.48L187.738 107.026L188.004 134.459Z" fill="#FFBE9D"/>
<path d="M205.151 114.207C205.01 114.062 204.933 113.867 204.936 113.665C204.938 113.463 205.021 113.27 205.166 113.129C205.311 112.988 205.506 112.91 205.709 112.913C205.911 112.916 206.103 112.999 206.244 113.144C206.314 113.216 206.369 113.301 206.406 113.394C206.443 113.487 206.461 113.586 206.46 113.686C206.459 113.786 206.437 113.885 206.398 113.977C206.358 114.069 206.301 114.152 206.229 114.222C206.157 114.292 206.073 114.347 205.98 114.384C205.887 114.421 205.787 114.439 205.687 114.438C205.587 114.436 205.488 114.415 205.396 114.375C205.304 114.336 205.221 114.279 205.151 114.207Z" fill="#263238"/>
<path d="M206.494 113.076C206.403 113.159 205.917 112.734 205.196 112.689C204.475 112.643 203.936 112.977 203.86 112.878C203.784 112.78 203.921 112.681 204.156 112.522C204.477 112.317 204.856 112.223 205.234 112.256C205.612 112.281 205.971 112.427 206.259 112.674C206.464 112.886 206.532 113.076 206.494 113.076Z" fill="#263238"/>
<path d="M198.175 113.205C198.34 113.321 198.453 113.497 198.488 113.696C198.523 113.894 198.477 114.099 198.361 114.264C198.246 114.429 198.069 114.541 197.87 114.576C197.672 114.611 197.468 114.565 197.302 114.45C197.22 114.392 197.15 114.319 197.097 114.234C197.043 114.15 197.007 114.055 196.99 113.956C196.973 113.858 196.976 113.756 196.998 113.659C197.021 113.561 197.062 113.469 197.12 113.387C197.236 113.223 197.413 113.112 197.61 113.078C197.808 113.044 198.011 113.09 198.175 113.205Z" fill="#263238"/>
<path d="M198.646 113.243C198.562 113.326 198.077 112.901 197.355 112.856C196.634 112.81 196.095 113.144 196.02 113.046C195.944 112.947 196.073 112.848 196.316 112.689C196.632 112.483 197.009 112.389 197.386 112.423C197.764 112.446 198.124 112.593 198.411 112.841C198.623 113.076 198.691 113.205 198.646 113.243Z" fill="#263238"/>
<path d="M201.166 119.346C201.547 119.227 201.944 119.17 202.343 119.179C202.532 119.179 202.684 119.133 202.707 119.034C202.725 118.844 202.691 118.653 202.608 118.48C202.449 117.995 202.297 117.501 202.13 116.962C201.667 115.696 201.332 114.386 201.128 113.053C201.712 114.27 202.174 115.541 202.51 116.848C202.661 117.365 202.806 117.866 202.958 118.366C203.056 118.607 203.074 118.873 203.011 119.126C202.979 119.195 202.932 119.257 202.873 119.306C202.813 119.354 202.744 119.389 202.669 119.406C202.563 119.42 202.456 119.42 202.35 119.406C201.955 119.448 201.555 119.428 201.166 119.346Z" fill="#263238"/>
<path d="M198.783 119.998C198.062 119.505 200.779 121.22 202.244 121.236C201.977 121.598 201.596 121.859 201.161 121.976C200.727 122.093 200.266 122.059 199.853 121.881C198.327 121.213 198.783 119.998 198.783 119.998Z" fill="white"/>
<path d="M201.045 128.189C198.634 128.083 196.31 127.264 194.365 125.836C194.365 125.836 195.739 129.692 200.976 129.54L201.045 128.189Z" fill="#EB996E"/>
<path d="M187.852 112.317L188.482 116.059L190.805 116.013L190.653 108.218C190.653 108.218 199.868 108.931 200.923 105.242C200.923 105.242 203.633 109.319 206.996 109.303C206.996 109.303 209.941 109 207.14 104.893C202.813 98.5779 187.404 103.656 187.404 103.656C187.016 104.81 186.828 106.022 186.85 107.239C186.789 111.277 187.852 112.317 187.852 112.317Z" fill="#263238"/>
<path d="M186.585 108.521L207.079 104.453C207.079 104.453 205.622 96.2397 194.547 98.6307C183.799 100.976 186.585 108.521 186.585 108.521Z" fill="#FF725E"/>
<path d="M186.585 108.522C186.873 108.468 211.68 109.053 213.448 105.622C214.291 103.982 206.951 103.937 206.951 103.937L207.118 104.453L186.585 108.522Z" fill="#FF725E"/>
<path opacity="0.2" d="M186.585 108.522C186.873 108.468 211.68 109.053 213.448 105.622C214.291 103.982 206.951 103.937 206.951 103.937L207.118 104.453L186.585 108.522Z" fill="black"/>
<path d="M188.74 111.656C188.627 111.611 184.869 111.125 185.226 115.558C185.583 119.991 189.94 118.169 189.94 118.04C189.94 117.911 188.74 111.656 188.74 111.656Z" fill="#FFBE9D"/>
<path d="M188.459 116.59C188.459 116.59 188.383 116.651 188.254 116.727C188.077 116.82 187.869 116.839 187.678 116.78C187.377 116.622 187.125 116.386 186.946 116.098C186.767 115.81 186.669 115.479 186.66 115.14C186.616 114.761 186.66 114.376 186.789 114.017C186.818 113.874 186.881 113.74 186.974 113.627C187.066 113.514 187.186 113.427 187.321 113.372C187.407 113.342 187.502 113.343 187.587 113.374C187.673 113.406 187.745 113.467 187.791 113.546C187.86 113.668 187.845 113.759 187.867 113.766C187.89 113.774 187.958 113.683 187.867 113.501C187.833 113.393 187.764 113.299 187.67 113.235C187.541 113.155 187.386 113.128 187.237 113.159C187.057 113.211 186.893 113.308 186.76 113.441C186.627 113.573 186.53 113.738 186.478 113.918C186.324 114.319 186.267 114.751 186.311 115.178C186.321 115.575 186.448 115.961 186.677 116.286C186.905 116.612 187.224 116.863 187.594 117.007C187.716 117.031 187.842 117.028 187.963 116.998C188.083 116.968 188.196 116.911 188.292 116.833C188.459 116.704 188.475 116.598 188.459 116.59Z" fill="#EB996E"/>
<path d="M200.831 102.225L198.319 102.273L198.367 104.785L200.879 104.737L200.831 102.225Z" fill="#263238"/>
<path d="M200.806 100.862L199.546 100.886L199.571 102.146L200.83 102.122L200.806 100.862Z" fill="#263238"/>
<path d="M238.36 133.29C238.36 133.29 234.481 157.974 231.749 158.103C228.629 158.255 219.034 144.645 219.034 144.645C212.894 135.172 204.794 133.639 201.842 133.403V132.234L187.328 131.043C187.328 131.043 187.328 132.295 187.328 133.388H180.899C180.899 133.388 169.392 132.857 167.661 148.319L175.943 154.862L179.336 167.485C180.368 171.341 178.789 176.26 177.058 184.898L176.018 184.655L175.578 193.362C175.517 193.772 175.457 194.189 175.404 194.607H175.517L172.011 264.129L154.082 331.465L174.265 332.224L192.877 266.528C192.877 266.528 194.494 214.001 196.134 213.97C198.889 213.917 200.65 330.82 201.705 330.554C202.76 330.289 223.49 330.501 223.49 330.501C223.49 330.501 216.628 194.295 216.697 194.295L214.92 168.487L214.245 161.033C218.184 166.574 225.631 175.228 233.586 175.076C246.543 174.825 248.365 134.656 248.365 134.656L238.36 133.29Z" fill="#0399C9"/>
<path d="M195.389 213.447C195.843 212.717 196.244 211.956 196.589 211.17C197.277 209.239 197.609 207.199 197.568 205.15C197.568 202.782 197.568 200.649 197.568 198.949C197.528 198.092 197.561 197.234 197.667 196.383C197.789 197.233 197.85 198.09 197.849 198.949C197.894 200.535 197.993 202.744 197.97 205.158C197.959 206.305 197.858 207.45 197.667 208.581C197.506 209.511 197.234 210.419 196.854 211.283C196.592 211.862 196.266 212.409 195.883 212.915C195.579 213.272 195.443 213.469 195.389 213.447Z" fill="#263238"/>
<path d="M183.48 202.417C183.554 202.648 183.59 202.889 183.586 203.131C183.624 203.594 183.67 204.254 183.693 205.089C183.809 207.275 183.373 209.455 182.425 211.427C181.865 212.516 181.033 213.441 180.011 214.115C179.167 214.647 178.199 214.951 177.203 214.995C176.533 215.029 175.865 214.915 175.244 214.661C175.012 214.58 174.8 214.451 174.622 214.282C175.433 214.618 176.31 214.769 177.187 214.722C178.125 214.635 179.027 214.319 179.814 213.803C180.774 213.15 181.556 212.268 182.091 211.238C183.004 209.318 183.461 207.214 183.427 205.089C183.399 204.198 183.416 203.307 183.48 202.417Z" fill="#263238"/>
<path d="M218.131 214.509C218.131 214.509 218.01 214.729 217.638 214.98C217.094 215.314 216.462 215.477 215.824 215.45C214.873 215.411 213.958 215.071 213.213 214.479C212.317 213.78 211.546 212.932 210.935 211.974C209.789 210.264 209.068 208.304 208.833 206.258C208.766 205.641 208.748 205.019 208.78 204.398C208.775 204.171 208.811 203.945 208.886 203.73C208.954 203.73 208.886 204.695 209.114 206.22C209.418 208.199 210.152 210.088 211.262 211.754C211.85 212.677 212.583 213.5 213.433 214.19C214.114 214.754 214.951 215.096 215.831 215.17C216.427 215.217 217.025 215.104 217.562 214.843C217.934 214.653 218.109 214.479 218.131 214.509Z" fill="#263238"/>
<path d="M175.191 327.754C175.191 327.868 170.712 327.792 165.202 327.594C159.691 327.397 155.212 327.131 155.212 327.033C155.212 326.934 159.691 326.995 165.209 327.2C170.728 327.405 175.199 327.648 175.191 327.754Z" fill="#263238"/>
<path d="M222.769 324.717C222.495 324.792 222.211 324.831 221.927 324.831L219.65 325.006C217.706 325.127 215.027 325.271 212.059 325.408C209.091 325.545 206.404 325.643 204.468 325.704L202.191 325.742C201.907 325.765 201.622 325.752 201.341 325.704C201.617 325.634 201.899 325.595 202.184 325.59L204.461 325.423C206.404 325.294 209.084 325.15 212.051 325.013C215.019 324.877 217.706 324.778 219.642 324.725L221.919 324.679C222.203 324.662 222.488 324.675 222.769 324.717Z" fill="#263238"/>
<path d="M185.529 215.056C185.541 215.154 185.541 215.253 185.529 215.352V216.225C185.529 216.984 185.491 218.138 185.469 219.58C185.4 222.487 185.271 226.7 185.059 231.907C184.846 237.114 184.558 243.293 184.148 250.177C183.943 253.616 183.715 257.222 183.389 260.956C183.229 262.823 183.085 264.751 182.759 266.649C182.432 268.547 182 270.482 181.605 272.433C178.144 287.956 174.257 301.816 171.221 311.783C169.703 316.77 168.337 320.755 167.38 323.51L166.219 326.653C166.082 326.995 165.983 327.268 165.9 327.465C165.875 327.561 165.836 327.653 165.786 327.738C165.799 327.642 165.825 327.548 165.862 327.458C165.93 327.253 166.021 326.979 166.143 326.63L167.236 323.457C168.147 320.694 169.513 316.694 170.955 311.707C173.916 301.725 177.787 287.85 181.218 272.342C181.635 270.406 182.053 268.486 182.372 266.588C182.69 264.691 182.842 262.793 183.002 260.926C183.313 257.191 183.548 253.586 183.761 250.155C184.186 243.323 184.52 237.091 184.755 231.892C184.99 226.692 185.165 222.502 185.294 219.572C185.347 218.13 185.393 217.007 185.423 216.217C185.423 215.853 185.438 215.564 185.469 215.352C185.484 215.252 185.504 215.153 185.529 215.056Z" fill="#263238"/>
<path d="M213.387 325.226C213.363 325.137 213.35 325.045 213.349 324.953C213.349 324.755 213.349 324.49 213.288 324.148C213.235 323.389 213.167 322.38 213.076 321.051C212.916 318.341 212.688 314.455 212.4 309.665C211.861 300.048 211.186 286.749 210.563 272.069C209.941 257.389 209.485 244.067 209.189 234.442C209.06 229.645 208.946 225.751 208.878 223.056C208.878 221.728 208.825 220.688 208.81 219.959V219.147C208.801 219.056 208.801 218.965 208.81 218.874C208.818 218.965 208.818 219.056 208.81 219.147C208.81 219.352 208.81 219.618 208.855 219.952C208.855 220.711 208.931 221.728 208.992 223.056C209.098 225.766 209.242 229.66 209.432 234.442C209.812 244.082 210.343 257.373 210.95 272.054C211.557 286.734 212.203 300.033 212.673 309.658C212.909 314.455 213.091 318.341 213.227 321.044C213.281 322.372 213.326 323.412 213.356 324.148C213.356 324.482 213.356 324.748 213.356 324.953C213.375 325.043 213.385 325.134 213.387 325.226Z" fill="#263238"/>
<path d="M196.718 131.809C196.775 132.489 196.775 133.172 196.718 133.851C196.697 135.555 196.53 137.254 196.217 138.929L196.171 139.18L195.944 139.059C195.458 138.808 194.957 138.542 194.463 138.246C192.353 137.017 190.562 135.734 189.233 134.853C187.905 133.973 187.093 133.434 187.116 133.388C187.916 133.718 188.679 134.13 189.393 134.618C190.759 135.445 192.581 136.69 194.668 137.905C195.162 138.193 195.655 138.466 196.126 138.717L195.845 138.846C196.164 137.192 196.372 135.518 196.467 133.836C196.496 133.155 196.58 132.477 196.718 131.809Z" fill="#263238"/>
<path d="M201.879 133.502C201.785 134.141 201.648 134.772 201.469 135.392C201.325 135.969 201.173 136.668 200.923 137.434C200.794 137.836 200.64 138.229 200.46 138.611C200.402 138.743 200.307 138.857 200.186 138.937C200.104 138.993 200.005 139.017 199.906 139.006C199.807 138.995 199.715 138.949 199.648 138.876C199.5 138.673 199.384 138.448 199.306 138.208C198.6 136.523 197.978 134.998 197.553 133.882C197.292 133.294 197.093 132.681 196.96 132.052C197.312 132.598 197.607 133.178 197.841 133.783C198.334 134.876 198.995 136.387 199.701 138.072C199.768 138.261 199.852 138.444 199.951 138.618C199.989 138.618 199.951 138.618 200.012 138.618C200.067 138.574 200.112 138.516 200.141 138.451C200.319 138.084 200.476 137.706 200.612 137.32C200.87 136.561 201.052 135.901 201.226 135.324C201.362 134.691 201.582 134.078 201.879 133.502Z" fill="#263238"/>
<path d="M199.155 185.369C199.114 185.19 199.094 185.006 199.094 184.822C199.094 184.428 199.034 183.911 198.988 183.266C198.92 181.87 198.814 179.919 198.692 177.528C198.472 172.647 198.176 165.975 197.842 158.604C197.508 151.234 197.303 144.562 197.083 139.673C197.007 137.282 196.954 135.339 196.908 133.935C196.908 133.29 196.908 132.773 196.908 132.417C196.897 132.235 196.897 132.052 196.908 131.87C196.95 132.047 196.973 132.228 196.977 132.409C196.977 132.804 197.037 133.32 197.075 133.965C197.151 135.369 197.25 137.313 197.379 139.704C197.599 144.584 197.895 151.257 198.221 158.627C198.548 165.998 198.768 172.677 198.981 177.558C199.056 179.949 199.117 181.9 199.163 183.297C199.163 183.942 199.163 184.466 199.163 184.86C199.179 185.03 199.176 185.2 199.155 185.369Z" fill="#263238"/>
<path d="M208.405 147.533L201.43 147.668L201.458 149.11L208.433 148.975L208.405 147.533Z" fill="white"/>
<path d="M215.034 171.098C214.92 171.098 214.48 165.83 214.047 159.31C213.615 152.79 213.349 147.514 213.455 147.507C213.562 147.499 214.002 152.775 214.442 159.287C214.882 165.8 215.178 171.091 215.034 171.098Z" fill="#263238"/>
<path d="M248.137 139.711C246.369 139.508 244.619 139.176 242.899 138.717C241.153 138.381 239.433 137.919 237.753 137.335C239.521 137.538 241.271 137.871 242.99 138.33C244.738 138.662 246.458 139.123 248.137 139.711Z" fill="#263238"/>
<path d="M239.871 135.043C240.012 135.04 240.151 135.079 240.27 135.156C240.389 135.232 240.483 135.342 240.54 135.471C240.596 135.601 240.613 135.744 240.588 135.884C240.563 136.023 240.497 136.151 240.398 136.253C240.3 136.355 240.174 136.425 240.035 136.454C239.897 136.484 239.753 136.472 239.622 136.419C239.49 136.367 239.377 136.277 239.297 136.16C239.217 136.044 239.174 135.906 239.172 135.764C239.17 135.671 239.187 135.578 239.221 135.491C239.255 135.404 239.306 135.325 239.371 135.258C239.436 135.191 239.514 135.137 239.599 135.101C239.685 135.064 239.777 135.044 239.871 135.043Z" fill="#263238"/>
<path d="M208.333 144.315L205.821 144.363L205.869 146.875L208.381 146.827L208.333 144.315Z" fill="#FF725E"/>
<path d="M208.3 142.943L207.04 142.968L207.064 144.227L208.324 144.203L208.3 142.943Z" fill="#FF725E"/>
<path d="M245.943 157.192L244.911 197.726L181.309 197.4L181.514 156.327L245.943 157.192Z" fill="#036585"/>
<path d="M208.164 197.491C208.058 197.491 208.164 188.435 208.483 177.277C208.802 166.119 209.106 157.101 209.189 157.101C209.273 157.101 209.189 166.149 208.878 177.315C208.567 188.481 208.271 197.491 208.164 197.491Z" fill="white"/>
<path d="M181.309 197.4C181.376 197.249 181.46 197.107 181.559 196.975L182.318 195.783L185.286 191.464L195.2 177.285C199.078 171.751 202.57 166.734 205.067 163.075C206.32 161.246 207.345 159.758 207.997 158.726L208.757 157.534C208.856 157.377 208.973 157.232 209.106 157.101C209.051 157.258 208.975 157.407 208.878 157.542L208.164 158.779C207.519 159.834 206.555 161.352 205.341 163.197C202.904 166.901 199.443 171.949 195.572 177.482C191.7 183.016 188.14 187.995 185.56 191.593L182.523 195.844C182.174 196.315 181.886 196.694 181.673 196.99C181.571 197.143 181.448 197.281 181.309 197.4Z" fill="white"/>
<path d="M207.535 197.81C207.444 197.871 201.584 188.739 194.456 177.414C187.329 166.089 181.613 156.858 181.712 156.805C181.81 156.752 187.655 165.876 194.79 177.201C201.926 188.527 207.626 197.757 207.535 197.81Z" fill="white"/>
<path d="M215.573 191.83L225.782 192.136L225.845 190.041L215.635 189.735L215.573 191.83Z" fill="white"/>
<path d="M215.315 189.164C216.972 188.965 218.643 188.901 220.31 188.974C221.978 188.906 223.648 188.974 225.304 189.179C223.647 189.37 221.977 189.433 220.31 189.369C218.642 189.428 216.972 189.36 215.315 189.164Z" fill="white"/>
<path d="M233.077 156.866L232.682 172.518L230.496 170.749L227.619 172.389L228.022 156.745L233.077 156.866Z" fill="white"/>
<path d="M180.261 152.737C180.261 152.737 177.18 174.249 178.637 175.509C186.713 182.302 197.94 185.862 201.955 186.986C202.54 186.841 203.231 186.659 204.013 186.409C204.695 186.192 205.335 185.858 205.903 185.422C206.633 184.913 207.289 184.305 207.853 183.615C207.941 183.473 208.069 183.361 208.222 183.293C208.375 183.225 208.544 183.205 208.709 183.235C208.873 183.266 209.024 183.345 209.143 183.463C209.261 183.581 209.341 183.732 209.371 183.896C209.409 184.655 208.218 186.553 205.978 187.942C205.978 187.942 211.125 196.223 212.764 196.967C214.404 197.711 219.103 199.829 218.306 200.239C217.509 200.649 211.8 198.979 211.8 198.979L200.217 195.882C200.217 195.882 161.892 189.878 164.45 172.298C166.014 161.527 167.722 151.803 168.337 149.359L180.261 152.737Z" fill="#FFBE9D"/>
<path d="M167.677 148.326L164.238 171.797C163.479 179.03 168.284 184.761 174.797 187.995C184.71 192.906 199.428 196.405 199.307 196.383C199.185 196.36 200.301 185.946 200.301 185.946C200.301 185.946 179.67 177.011 179.047 173.17C178.425 169.33 181.666 153.276 181.666 153.276L167.677 148.326Z" fill="#0399C9"/>
<path d="M199.306 196.383C199.296 196.323 199.296 196.261 199.306 196.201C199.306 196.057 199.306 195.874 199.306 195.654C199.344 195.146 199.397 194.447 199.466 193.567C199.625 191.722 199.853 189.111 200.134 185.9L200.217 186.037L189.833 181.012L186.797 179.547C185.787 179.008 184.778 178.424 183.761 177.778C182.74 177.124 181.761 176.407 180.831 175.63C180.36 175.236 179.897 174.826 179.449 174.385C179.204 174.171 179.001 173.914 178.85 173.626C178.774 173.477 178.718 173.319 178.683 173.156C178.636 172.996 178.6 172.834 178.576 172.67C178.242 170.112 178.933 167.683 179.282 165.375C179.631 163.068 180.041 160.821 180.444 158.68C181.203 154.422 181.856 150.589 182.425 147.355C182.73 145.922 182.906 144.463 182.949 142.998C182.959 141.895 182.731 140.802 182.281 139.795C181.989 139.162 181.576 138.592 181.066 138.117C180.709 137.791 180.489 137.67 180.497 137.647C180.722 137.755 180.931 137.893 181.119 138.057C181.664 138.516 182.107 139.085 182.417 139.727C182.91 140.744 183.17 141.86 183.176 142.991C183.159 144.472 183.001 145.949 182.706 147.401C182.167 150.642 181.522 154.483 180.808 158.749L179.669 165.451C179.571 166.028 179.472 166.62 179.366 167.212C179.26 167.804 179.153 168.381 179.07 168.981C178.873 170.18 178.842 171.401 178.979 172.609C178.997 172.758 179.028 172.905 179.07 173.049C179.102 173.191 179.15 173.329 179.214 173.459C179.34 173.719 179.518 173.949 179.738 174.135C180.17 174.568 180.626 174.97 181.089 175.365C182.008 176.127 182.971 176.834 183.973 177.482C184.96 178.128 185.962 178.712 186.956 179.243L189.947 180.716L200.278 185.817L200.369 185.862V185.946C200.035 189.157 199.762 191.768 199.61 193.605C199.511 194.485 199.435 195.176 199.382 195.685C199.382 195.905 199.329 196.079 199.306 196.224C199.284 196.368 199.314 196.391 199.306 196.383Z" fill="#263238"/>
<path d="M197.393 184.473C197.421 185.01 197.381 185.548 197.272 186.075C197.143 187.062 196.938 188.413 196.665 189.87C196.391 191.328 196.08 192.694 195.822 193.665C195.716 194.191 195.545 194.701 195.314 195.184C195.207 195.184 195.723 192.77 196.278 189.809C196.541 188.01 196.914 186.228 197.393 184.473Z" fill="#263238"/>
<path d="M199.306 196.383C199.186 196.382 199.065 196.364 198.95 196.33L197.925 196.079L194.19 195.108C191.055 194.257 186.683 193.149 182.045 191.426C179.842 190.623 177.696 189.669 175.624 188.572C173.936 187.664 172.322 186.626 170.796 185.467C169.773 184.679 168.806 183.819 167.904 182.894C167.593 182.568 167.35 182.302 167.198 182.135C167.111 182.048 167.037 181.948 166.978 181.839C166.978 181.839 167.35 182.181 168.018 182.803C168.951 183.68 169.937 184.499 170.971 185.255C172.499 186.39 174.113 187.405 175.798 188.291C177.862 189.367 179.995 190.305 182.182 191.1C186.827 192.808 191.184 193.961 194.327 194.895L198.024 195.996L199.026 196.307C199.121 196.325 199.215 196.351 199.306 196.383Z" fill="#263238"/>
<path d="M199.564 186.986C199.566 187.073 199.551 187.161 199.519 187.243C199.488 187.324 199.44 187.399 199.38 187.463C199.319 187.526 199.246 187.577 199.166 187.612C199.086 187.648 198.999 187.667 198.912 187.669C198.736 187.669 198.568 187.601 198.442 187.479C198.316 187.357 198.242 187.191 198.236 187.016C198.234 186.928 198.249 186.841 198.281 186.759C198.313 186.678 198.36 186.603 198.421 186.539C198.481 186.476 198.554 186.425 198.634 186.39C198.715 186.354 198.801 186.335 198.889 186.333C199.064 186.333 199.233 186.401 199.359 186.523C199.485 186.645 199.558 186.811 199.564 186.986Z" fill="#263238"/>
<path d="M378.438 76.7243H294.668V335.481H378.438V76.7243Z" fill="#E0E0E0"/>
<path d="M349.631 78.7054V323.913L389.71 335.488L389.839 78.7054H349.631Z" fill="#455A64"/>
<path d="M354.573 197.582C354.649 199.502 353.913 201.089 352.926 201.134C351.939 201.18 351.074 199.616 350.998 197.726C350.922 195.836 351.658 194.219 352.645 194.181C353.632 194.144 354.497 195.662 354.573 197.582Z" fill="white"/>
<path d="M352.721 196.155L360.615 197.21C360.82 197.237 361.009 197.335 361.148 197.488C361.287 197.641 361.367 197.838 361.374 198.045C361.379 198.175 361.355 198.305 361.304 198.425C361.252 198.545 361.175 198.652 361.076 198.738C360.978 198.824 360.862 198.887 360.736 198.922C360.61 198.957 360.478 198.963 360.349 198.941L352.759 197.658L352.721 196.155Z" fill="white"/>
<path d="M284.883 67.5776V76.0412V78.7055V335.488H298.038V78.7055H375.234V335.488H389.709V78.7055V76.0412V67.5776H284.883Z" fill="#036585"/>
<path d="M298.038 78.7054H291.464V335.481H298.038V78.7054Z" fill="#263238"/>
<path opacity="0.5" d="M298.038 78.7054H291.464V335.481H298.038V78.7054Z" fill="#0B0237"/>
<path d="M389.839 67.5776H383.265V335.488H389.839V67.5776Z" fill="#263238"/>
<path opacity="0.5" d="M389.839 67.5776H383.265V335.488H389.839V67.5776Z" fill="#0B0237"/>
<path d="M346.314 51.9408H324.711V56.7609H346.314V51.9408Z" fill="#455A64"/>
<path d="M338.002 118.996C338.127 121.332 338.998 123.567 340.487 125.37C341.977 127.174 344.006 128.452 346.276 129.016C348.621 129.585 351.324 129.32 353.183 130.891C356.371 133.601 354.504 139.241 356.66 142.831C357.981 145.063 360.607 146.156 362.095 148.273C364.569 151.788 362.907 157.109 359.537 159.728C356.166 162.346 351.665 162.847 347.445 162.764C338.146 162.521 328.62 159.568 321.902 152.98C318.745 149.883 308.505 138.11 313.158 121.145" fill="#0399C9"/>
<path d="M304.421 143.954C304.421 143.954 288.155 158.096 287.722 156.373C285.445 147.013 286.082 135.058 286.454 130.481C286.705 130.094 287.001 129.661 287.35 129.183C287.747 128.629 288.238 128.149 288.8 127.764C289.479 127.251 290.225 126.832 291.016 126.519C291.182 126.499 291.336 126.425 291.456 126.309C291.575 126.193 291.653 126.04 291.677 125.875C291.701 125.71 291.671 125.542 291.589 125.396C291.508 125.25 291.382 125.135 291.229 125.069C290.576 124.826 288.496 125.365 286.568 126.974C284.64 128.583 285.43 124.758 285.688 123.361C285.946 121.964 286.553 117.592 286.181 117.182C285.642 116.575 284.883 117.061 284.663 118.465C284.443 119.869 283.448 124.037 282.712 123.885C281.976 123.733 283.418 116.613 283.418 116.613C283.418 116.613 283.965 115.133 283.122 114.928C281.604 114.556 280.647 122.222 280.572 122.951C280.518 123.46 279.714 123.323 279.812 122.777C279.911 122.23 281.399 115.71 279.858 115.315C278.674 115.011 279.008 121.608 277.945 122.807C276.882 124.006 278.203 117.767 277.057 117.494C276.632 117.402 276.298 117.395 276.063 121.076C276.006 124.04 276.113 127.005 276.382 129.957C275.372 140.053 273.391 170.985 287.365 169.922C303.852 168.662 307.647 155.667 307.647 155.667L304.421 143.954Z" fill="#B78876"/>
<path d="M317.416 139.354C317.651 138.049 317.234 132.568 317.234 132.568C317.234 132.568 312.368 131.953 312.163 126.997C311.958 122.04 312.444 110.609 312.444 110.609L321.393 106.312L331.018 114.07L329.348 139.271L317.416 139.354Z" fill="#B78876"/>
<path d="M313.272 118.958C313.272 119.081 313.308 119.201 313.376 119.303C313.444 119.406 313.541 119.485 313.654 119.533C313.768 119.58 313.893 119.593 314.013 119.569C314.134 119.546 314.245 119.487 314.332 119.401C314.419 119.315 314.479 119.205 314.504 119.084C314.529 118.964 314.518 118.839 314.472 118.725C314.426 118.612 314.347 118.514 314.246 118.445C314.144 118.375 314.025 118.337 313.902 118.336C313.736 118.336 313.577 118.401 313.459 118.518C313.341 118.634 313.274 118.793 313.272 118.958Z" fill="#263238"/>
<path d="M312.687 118.252C312.763 118.336 313.226 117.949 313.894 117.926C314.562 117.903 315.056 118.237 315.124 118.146C315.192 118.055 315.078 117.949 314.858 117.797C314.571 117.593 314.223 117.491 313.872 117.509C313.521 117.526 313.186 117.657 312.915 117.88C312.71 118.055 312.649 118.214 312.687 118.252Z" fill="#263238"/>
<path d="M320.43 119.08C320.43 119.203 320.466 119.323 320.535 119.425C320.603 119.527 320.699 119.607 320.813 119.654C320.926 119.702 321.051 119.714 321.171 119.691C321.292 119.668 321.403 119.609 321.49 119.523C321.577 119.437 321.637 119.326 321.662 119.206C321.687 119.086 321.676 118.961 321.63 118.847C321.584 118.733 321.505 118.635 321.404 118.566C321.303 118.497 321.183 118.459 321.06 118.458C320.894 118.458 320.735 118.523 320.617 118.639C320.499 118.756 320.432 118.914 320.43 119.08Z" fill="#263238"/>
<path d="M320.058 118.389C320.142 118.473 320.605 118.085 321.273 118.055C321.941 118.025 322.426 118.374 322.502 118.283C322.578 118.192 322.457 118.085 322.237 117.926C321.947 117.727 321.601 117.628 321.25 117.645C320.899 117.661 320.563 117.792 320.293 118.017C320.088 118.184 320.02 118.344 320.058 118.389Z" fill="#263238"/>
<path d="M317.561 124.112C317.21 124.002 316.844 123.946 316.475 123.945C316.308 123.945 316.141 123.9 316.111 123.778C316.098 123.59 316.135 123.402 316.217 123.232L316.696 121.827C317.146 120.631 317.506 119.403 317.773 118.154C317.238 119.311 316.789 120.506 316.43 121.729C316.271 122.23 316.111 122.693 315.967 123.148C315.864 123.371 315.837 123.622 315.891 123.862C315.913 123.924 315.951 123.981 316 124.025C316.048 124.07 316.108 124.103 316.172 124.12C316.268 124.133 316.365 124.133 316.46 124.12C316.826 124.166 317.196 124.163 317.561 124.112Z" fill="#263238"/>
<path d="M319.746 124.795C320.429 124.348 317.864 125.896 316.513 125.873C316.743 126.223 317.088 126.482 317.488 126.606C317.887 126.731 318.318 126.713 318.706 126.556C318.891 126.51 319.064 126.427 319.216 126.313C319.368 126.199 319.496 126.056 319.592 125.892C319.689 125.728 319.752 125.547 319.779 125.359C319.805 125.171 319.794 124.979 319.746 124.795Z" fill="white"/>
<path d="M317.234 132.569C319.539 132.506 321.776 131.773 323.671 130.458C323.671 130.458 322.153 134.079 317.318 133.783L317.234 132.569Z" fill="#A36957"/>
<path d="M338.002 119.072C337.956 118.723 337.903 118.192 337.85 117.638C337.774 116.879 337.691 116.059 337.592 115.619C335.132 105.242 326.312 103.162 324.566 103.132C322.684 103.094 319.42 101.978 314.539 107.003C313.151 108.336 312.188 110.049 311.77 111.928C311.353 113.807 311.5 115.767 312.194 117.562L313.013 116.803L320.111 115.057C319.579 113.091 320.445 110.677 320.93 109.554L320.976 109.508C322.259 116.955 330.206 117.858 330.206 117.858L329.447 137.593C337.273 136.015 337.895 123.323 337.88 119.027L338.002 119.072Z" fill="#0399C9"/>
<path d="M341.076 207.656C341.076 207.557 341.076 207.458 341.076 207.397C341.076 207.336 341.091 207.518 341.076 207.656Z" fill="#B78876"/>
<path d="M350.292 327.989C350.292 327.989 331.968 266.224 331.619 264.228C331.3 262.444 339.786 219.109 341.016 207.867L315.254 208.11C315.254 208.11 315.254 208.179 315.254 208.3L302.805 208.642L309.037 332.065L322.7 332.422L322.495 291.85C329.251 311.661 337.798 334.046 337.798 334.046L350.292 327.989Z" fill="#B78876"/>
<path d="M314.304 261.465C314.342 261.465 314.304 261.951 314.221 262.816C314.161 264.036 314.184 265.258 314.289 266.475C314.447 268.28 314.752 270.07 315.2 271.826C315.794 273.971 316.524 276.075 317.386 278.126C319.079 282.559 320.597 286.575 321.675 289.512L322.965 292.973C323.134 293.393 323.271 293.824 323.375 294.264C323.162 293.865 322.977 293.451 322.821 293.027L321.447 289.611C320.301 286.719 318.745 282.711 317.044 278.278C316.627 277.17 316.217 276.084 315.815 275.037C315.445 274.021 315.133 272.984 314.881 271.932C314.442 270.154 314.16 268.34 314.039 266.513C313.96 265.281 313.98 264.045 314.099 262.816C314.145 262.383 314.198 262.057 314.243 261.822C314.244 261.7 314.264 261.58 314.304 261.465Z" fill="#A36957"/>
<path d="M322.563 306.591C322.563 306.219 322.806 292.837 322.806 292.837C322.806 292.837 318.313 280.434 318.199 280.805C318.085 281.177 322.563 306.591 322.563 306.591Z" fill="#A36957"/>
<path d="M338.268 333.834L350.322 327.989L351.711 330.577L347.452 332.984C344.545 334.57 334.662 339.747 332.324 340.164C329.721 340.635 338.268 333.834 338.268 333.834Z" fill="#036585"/>
<path d="M331.785 339.815C331.725 339.724 336.127 337.538 341.615 334.949C347.103 332.361 351.589 330.334 351.642 330.395C351.695 330.456 347.3 332.672 341.812 335.253C336.324 337.834 331.838 339.906 331.785 339.815Z" fill="white"/>
<path d="M348.576 331.966C348.515 331.966 348.492 331.738 348.515 331.374C348.546 330.889 348.678 330.416 348.902 329.985C349.154 329.513 349.558 329.141 350.049 328.93C350.451 328.771 350.732 328.809 350.732 328.846C350.732 328.884 350.504 328.968 350.2 329.158C349.818 329.406 349.502 329.745 349.282 330.144C349.085 330.554 348.927 330.981 348.811 331.42C348.713 331.761 348.629 331.974 348.576 331.966Z" fill="#263238"/>
<path d="M337.615 334.388C337.615 334.494 337.987 334.638 338.465 334.798C338.943 334.957 339.346 335.063 339.414 334.972C339.482 334.881 339.141 334.593 338.617 334.418C338.093 334.244 337.63 334.274 337.615 334.388Z" fill="#263238"/>
<path d="M336.788 335.033C336.788 335.147 337.106 335.352 337.547 335.496C337.987 335.64 338.427 335.686 338.48 335.579C338.533 335.473 338.177 335.276 337.721 335.124C337.266 334.972 336.818 334.927 336.788 335.033Z" fill="#263238"/>
<path d="M336.105 335.632C336.059 335.731 336.317 335.921 336.651 336.095C336.985 336.27 337.311 336.369 337.41 336.285C337.509 336.202 337.266 335.944 336.902 335.754C336.537 335.564 336.158 335.526 336.105 335.632Z" fill="#263238"/>
<path d="M337.668 334.486C337.734 334.06 337.69 333.623 337.539 333.219C337.419 332.752 337.208 332.313 336.917 331.928C336.73 331.689 336.51 331.477 336.264 331.298C336.121 331.195 335.965 331.111 335.801 331.048C335.589 330.965 335.353 330.965 335.14 331.048C335.051 331.094 334.974 331.159 334.912 331.238C334.851 331.317 334.808 331.409 334.787 331.507C334.765 331.605 334.765 331.706 334.787 331.804C334.808 331.902 334.851 331.993 334.913 332.073C335.079 332.317 335.267 332.546 335.474 332.756C335.82 333.107 336.196 333.427 336.598 333.712C336.952 334.011 337.359 334.243 337.797 334.395C337.843 334.35 337.425 334.039 336.81 333.507C336.452 333.198 336.113 332.869 335.793 332.52C335.614 332.327 335.451 332.119 335.307 331.898C335.171 331.701 335.209 331.458 335.345 331.405C335.482 331.351 335.763 331.405 335.991 331.594C336.209 331.743 336.406 331.922 336.575 332.126C336.859 332.473 337.082 332.865 337.235 333.287C337.342 333.699 337.487 334.101 337.668 334.486Z" fill="#191A37"/>
<path d="M337.669 334.251C337.33 333.916 336.924 333.657 336.477 333.492C335.991 333.278 335.481 333.122 334.959 333.029C334.646 332.973 334.328 332.945 334.01 332.945C333.828 332.947 333.647 332.97 333.471 333.014C333.36 333.039 333.257 333.088 333.167 333.158C333.114 333.2 333.071 333.254 333.043 333.317C333.016 333.379 333.003 333.447 333.008 333.515C333.063 333.699 333.161 333.867 333.293 334.007C333.424 334.146 333.587 334.253 333.767 334.319C334.06 334.462 334.372 334.562 334.693 334.615C335.219 334.689 335.751 334.705 336.28 334.661C337.198 334.608 337.699 334.289 337.653 334.251C337.193 334.319 336.729 334.362 336.264 334.38C335.755 334.383 335.247 334.34 334.746 334.251C334.482 334.198 334.227 334.108 333.987 333.985C333.759 333.864 333.501 333.636 333.486 333.492C333.471 333.348 333.767 333.325 334.055 333.34C334.345 333.328 334.634 333.343 334.921 333.386C335.412 333.464 335.894 333.586 336.363 333.75C336.785 333.95 337.221 334.118 337.669 334.251Z" fill="#191A37"/>
<path d="M338.503 333.705C338.571 333.819 341.372 332.748 344.628 331.147C347.885 329.545 350.397 328.11 350.314 327.989C350.23 327.867 347.574 329.15 344.325 330.744C341.076 332.338 338.427 333.591 338.503 333.705Z" fill="#263238"/>
<path d="M310.6 331.928L322.692 332.019L322.487 335.519H321.728C318.221 335.519 303.882 335.261 301.582 334.524C298.986 333.72 310.6 331.928 310.6 331.928Z" fill="#036585"/>
<path d="M301.287 333.963C301.287 333.864 306.046 334.046 311.913 334.373C317.781 334.699 322.502 335.056 322.495 335.132C322.487 335.208 317.743 335.056 311.868 334.729C305.993 334.403 301.279 334.084 301.287 333.963Z" fill="white"/>
<path d="M318.654 334.919C318.608 334.881 318.722 334.684 318.965 334.388C319.294 333.983 319.696 333.644 320.149 333.386C320.651 333.107 321.224 332.983 321.796 333.029C322.236 333.082 322.464 333.241 322.441 333.279C322.419 333.317 322.168 333.279 321.781 333.279C321.291 333.31 320.813 333.45 320.384 333.689C319.962 333.935 319.566 334.223 319.2 334.547C318.904 334.805 318.699 334.949 318.654 334.919Z" fill="#263238"/>
<path d="M309.689 332.095C309.606 332.179 309.864 332.49 310.19 332.854C310.517 333.219 310.797 333.5 310.911 333.446C311.025 333.393 310.911 332.999 310.547 332.611C310.183 332.224 309.773 332.012 309.689 332.095Z" fill="#263238"/>
<path d="M308.543 332.262C308.452 332.338 308.635 332.68 308.953 333.021C309.272 333.363 309.614 333.591 309.712 333.53C309.811 333.469 309.637 333.128 309.303 332.771C308.969 332.414 308.665 332.186 308.543 332.262Z" fill="#263238"/>
<path d="M307.617 332.444C307.51 332.505 307.617 332.786 307.814 333.09C308.011 333.393 308.216 333.629 308.338 333.591C308.459 333.553 308.421 333.234 308.216 332.907C308.011 332.581 307.715 332.384 307.617 332.444Z" fill="#263238"/>
<path d="M309.681 332.209C309.984 331.888 310.207 331.501 310.334 331.078C310.51 330.637 310.59 330.163 310.569 329.689C310.557 329.399 310.492 329.114 310.38 328.846C310.318 328.693 310.233 328.55 310.129 328.421C309.98 328.25 309.771 328.141 309.545 328.118C309.439 328.108 309.333 328.121 309.233 328.155C309.133 328.188 309.041 328.243 308.963 328.314C308.885 328.386 308.823 328.473 308.781 328.57C308.739 328.666 308.717 328.771 308.717 328.877C308.716 329.157 308.744 329.437 308.801 329.712C308.887 330.169 309.019 330.617 309.196 331.048C309.324 331.47 309.544 331.859 309.841 332.186C309.779 331.769 309.667 331.361 309.507 330.972C309.379 330.542 309.283 330.103 309.218 329.659C309.18 329.407 309.165 329.153 309.173 328.9C309.173 328.672 309.347 328.49 309.507 328.505C309.666 328.52 309.856 328.717 309.955 328.968C310.061 329.208 310.125 329.465 310.144 329.727C310.181 330.161 310.14 330.598 310.023 331.017C309.868 331.402 309.753 331.801 309.681 332.209Z" fill="#191A37"/>
<path d="M309.826 332.012C309.724 331.575 309.518 331.169 309.226 330.828C308.933 330.419 308.586 330.051 308.194 329.735C307.958 329.539 307.704 329.366 307.435 329.219C307.274 329.132 307.103 329.066 306.926 329.021C306.809 328.998 306.687 328.998 306.57 329.021C306.497 329.031 306.428 329.056 306.366 329.096C306.304 329.135 306.252 329.187 306.213 329.249C306.147 329.417 306.127 329.599 306.153 329.778C306.18 329.956 306.253 330.125 306.365 330.266C306.53 330.532 306.744 330.763 306.995 330.949C307.42 331.254 307.878 331.508 308.361 331.708C308.801 331.965 309.314 332.066 309.818 331.997C309.374 331.847 308.94 331.667 308.52 331.458C308.083 331.23 307.669 330.96 307.283 330.653C307.079 330.484 306.903 330.284 306.759 330.061C306.693 329.968 306.646 329.862 306.622 329.749C306.599 329.637 306.599 329.521 306.623 329.408C306.623 329.34 306.964 329.408 307.207 329.545C307.477 329.664 307.732 329.815 307.966 329.993C308.35 330.281 308.701 330.609 309.014 330.972C309.484 331.61 309.758 332.035 309.826 332.012Z" fill="#191A37"/>
<path d="M310.881 331.928C312.801 332.237 314.745 332.366 316.688 332.316C318.629 332.403 320.573 332.334 322.503 332.111C320.572 331.934 318.634 331.868 316.696 331.913C313.493 331.883 310.889 331.822 310.881 331.928Z" fill="#263238"/>
<path d="M347.581 165.261C347.581 165.261 348.075 163.409 346.671 152.061C346.063 147.12 342.701 144.053 339.08 142.194V142.133L338.769 142.042C335.799 140.607 332.61 139.678 329.334 139.294L316.589 139.089C316.589 139.089 307.26 137.928 301.317 144.402C295.373 150.877 291.32 154.68 291.32 154.68L300.816 166.066L303.359 163.554C303.359 163.554 303.093 168.799 304.824 171.858L308.93 179.084L306.266 191.813C304.581 196.664 299.024 214.403 301.203 231.975C303.897 253.738 304.33 260.099 304.33 260.099L335.102 264.304C335.102 264.304 347.399 218.229 343.187 199.928C340.294 187.35 338.086 187.935 337.372 185.21L338.146 165.633L347.581 165.261Z" fill="#036585"/>
<path d="M305.796 159.318C305.549 160.131 305.175 160.899 304.687 161.595C304.319 162.353 303.829 163.045 303.238 163.644C303.488 162.833 303.862 162.065 304.346 161.367C304.717 160.612 305.207 159.92 305.796 159.318Z" fill="#263238"/>
<path d="M333.379 183.115C333.059 183.208 332.732 183.271 332.4 183.304C331.763 183.411 330.836 183.532 329.698 183.646C326.715 183.948 323.716 184.072 320.718 184.018C317.719 183.961 314.726 183.731 311.754 183.327C310.615 183.168 309.697 183.016 309.067 182.894C308.733 182.85 308.405 182.771 308.087 182.659C308.423 182.657 308.759 182.685 309.089 182.743L311.784 183.054C314.061 183.297 317.226 183.555 320.726 183.623C324.225 183.691 327.383 183.532 329.668 183.365L332.377 183.152C332.709 183.101 333.045 183.089 333.379 183.115Z" fill="#263238"/>
<path d="M343.748 217.598C343.731 217.802 343.693 218.003 343.634 218.198C343.528 218.631 343.391 219.208 343.217 219.929C343.118 220.301 343.02 220.688 342.906 221.166C342.792 221.644 342.602 222.1 342.435 222.623C342.086 223.656 341.744 224.863 341.19 226.123L340.37 228.127C340.082 228.817 339.71 229.508 339.361 230.244C338.685 231.717 337.79 233.205 336.886 234.799C332.779 241.584 327.36 247.483 320.946 252.151C319.428 253.183 318.039 254.2 316.619 254.99C315.921 255.4 315.261 255.825 314.593 256.174L312.665 257.153C311.458 257.813 310.281 258.246 309.279 258.671C308.778 258.884 308.308 259.089 307.875 259.256L306.66 259.666L304.975 260.227C304.783 260.3 304.585 260.356 304.383 260.394C304.564 260.293 304.755 260.212 304.953 260.151L306.607 259.521L307.807 259.081C308.239 258.906 308.695 258.686 309.196 258.466C310.183 258.011 311.344 257.563 312.543 256.887L314.448 255.885C315.109 255.536 315.762 255.126 316.452 254.694C317.857 253.897 319.246 252.872 320.733 251.84C327.094 247.176 332.485 241.319 336.605 234.594C337.516 233.03 338.42 231.557 339.095 230.093C339.452 229.333 339.854 228.688 340.12 227.997C340.386 227.307 340.697 226.646 340.962 226.016C341.532 224.764 341.889 223.58 342.26 222.555C342.435 222.039 342.617 221.561 342.754 221.113C342.891 220.665 342.997 220.255 343.095 219.883L343.589 218.183C343.629 217.985 343.682 217.789 343.748 217.598Z" fill="#263238"/>
<path d="M347.096 158.62C346.946 158.733 346.783 158.827 346.61 158.9C346.291 159.067 345.851 159.318 345.191 159.614C343.44 160.505 341.564 161.124 339.627 161.451C338.272 161.646 336.892 161.571 335.566 161.231C334.822 161.034 334.113 160.724 333.463 160.312C332.785 159.862 332.178 159.312 331.664 158.68C330.651 157.296 329.741 155.84 328.939 154.323C328.051 152.805 326.897 151.287 325.144 150.71C323.39 150.133 321.546 150.566 319.868 151.044C318.24 151.614 316.547 151.979 314.828 152.13C313.803 152.167 312.782 151.989 311.83 151.607C310.878 151.225 310.017 150.648 309.301 149.912C308.586 149.177 308.033 148.3 307.678 147.338C307.322 146.376 307.172 145.35 307.238 144.326C307.289 143.478 307.482 142.645 307.807 141.86C308.063 141.184 308.453 140.567 308.953 140.045C308.556 140.634 308.22 141.263 307.951 141.92C307.655 142.695 307.489 143.513 307.458 144.342C307.426 145.322 307.596 146.298 307.955 147.21C308.315 148.123 308.857 148.952 309.549 149.647C310.24 150.342 311.067 150.889 311.977 151.253C312.888 151.617 313.863 151.792 314.843 151.765C316.53 151.606 318.19 151.236 319.785 150.665C320.658 150.397 321.552 150.202 322.457 150.08C323.41 149.954 324.38 150.042 325.296 150.338C326.205 150.663 327.022 151.202 327.679 151.91C328.298 152.587 328.84 153.33 329.296 154.126C330.087 155.627 330.98 157.073 331.968 158.453C332.909 159.649 334.211 160.512 335.68 160.912C336.962 161.259 338.301 161.349 339.619 161.178C341.536 160.877 343.4 160.302 345.153 159.47L346.603 158.825C346.762 158.745 346.927 158.676 347.096 158.62Z" fill="white"/>
<path d="M329.038 185.513C329.298 185.124 329.481 184.688 329.577 184.23C329.652 183.602 329.585 182.966 329.38 182.368C329.175 181.77 328.837 181.226 328.393 180.776C327.781 180.151 327.029 179.68 326.199 179.403C325.239 179.079 324.246 178.863 323.239 178.757C322.168 178.613 321.022 178.53 319.853 178.279C318.621 178.056 317.455 177.555 316.445 176.814C315.943 176.414 315.519 175.925 315.193 175.372C314.887 174.838 314.632 174.276 314.433 173.694C314.121 172.618 313.707 171.573 313.196 170.575C312.717 169.769 312.044 169.097 311.238 168.619C310.431 168.142 309.518 167.874 308.581 167.842C307.299 167.819 306.046 168.225 305.021 168.996C304.655 169.29 304.308 169.607 303.981 169.945C303.981 169.945 304.034 169.831 304.179 169.633C304.405 169.355 304.659 169.101 304.938 168.874C305.967 168.023 307.261 167.559 308.596 167.561C309.588 167.578 310.559 167.845 311.419 168.339C312.28 168.833 313.001 169.537 313.515 170.385C314.046 171.401 314.478 172.466 314.805 173.565C315.134 174.709 315.791 175.73 316.695 176.503C317.656 177.203 318.761 177.68 319.929 177.9C321.068 178.15 322.206 178.241 323.277 178.401C325.417 178.666 327.451 179.281 328.59 180.587C329.052 181.068 329.395 181.652 329.591 182.29C329.787 182.927 329.832 183.602 329.721 184.261C329.643 184.614 329.493 184.947 329.281 185.24C329.21 185.34 329.129 185.431 329.038 185.513Z" fill="white"/>
<path d="M340.948 239.422C339.935 239.321 338.912 239.364 337.911 239.551C336.74 239.792 335.582 240.093 334.443 240.454C332.925 240.96 331.343 241.247 329.744 241.304C327.793 241.342 325.857 240.961 324.066 240.188C321.986 239.318 320.2 237.869 318.92 236.013C317.552 233.91 316.968 231.392 317.273 228.901C317.421 227.59 317.821 226.319 318.449 225.159C319.102 223.958 320.018 222.92 321.129 222.123C322.206 221.318 323.406 220.604 323.945 219.489C324.218 218.939 324.308 218.317 324.203 217.712C324.082 217.1 323.877 216.508 323.596 215.951C322.955 214.856 322.523 213.652 322.32 212.399C322.203 211.174 322.386 209.94 322.852 208.801C323.746 206.707 325.42 205.044 327.52 204.163C329.316 203.398 331.262 203.048 333.213 203.138C334.79 203.22 336.372 203.175 337.942 203.002C339.119 202.837 340.242 202.4 341.221 201.727C341.848 201.302 342.367 200.739 342.739 200.079C342.982 199.624 343.035 199.358 343.065 199.366C343.018 199.631 342.931 199.886 342.807 200.125C342.462 200.812 341.957 201.405 341.335 201.856C340.346 202.567 339.205 203.038 338.003 203.23C336.422 203.428 334.827 203.494 333.236 203.427C331.327 203.354 329.425 203.709 327.672 204.467C325.663 205.332 324.069 206.943 323.224 208.96C322.781 210.044 322.612 211.219 322.73 212.384C322.931 213.594 323.353 214.757 323.975 215.815C324.276 216.401 324.491 217.027 324.613 217.674C324.737 218.359 324.636 219.065 324.324 219.686C323.679 220.946 322.449 221.667 321.394 222.457C320.354 223.214 319.486 224.183 318.847 225.301C318.209 226.418 317.814 227.658 317.69 228.939C317.401 231.329 317.954 233.745 319.254 235.771C320.491 237.575 322.215 238.991 324.226 239.854C325.975 240.616 327.866 241.001 329.774 240.985C331.351 240.955 332.915 240.699 334.42 240.226C335.569 239.878 336.737 239.597 337.919 239.384C338.67 239.25 339.436 239.214 340.196 239.277C340.451 239.302 340.702 239.35 340.948 239.422Z" fill="white"/>
<path d="M330.207 263.628C330.169 263.628 330.207 263.097 330.26 262.148C330.333 260.816 330.097 259.486 329.569 258.261C329.196 257.439 328.542 256.777 327.724 256.394C326.758 256.02 325.722 255.862 324.688 255.931C323.484 256.028 322.273 255.878 321.128 255.491C320.537 255.216 320.017 254.808 319.61 254.299C319.206 253.782 318.855 253.225 318.563 252.637C318.063 251.488 317.41 250.413 316.619 249.441C315.856 248.566 314.94 247.835 313.917 247.285C312.175 246.346 310.177 245.989 308.217 246.268C306.894 246.457 305.622 246.906 304.474 247.589C303.67 248.082 303.275 248.439 303.252 248.416C303.23 248.394 303.336 248.31 303.518 248.136C304.83 246.984 306.45 246.24 308.179 245.995C310.2 245.662 312.276 246.003 314.084 246.967C315.154 247.524 316.112 248.276 316.908 249.183C317.327 249.653 317.701 250.161 318.024 250.701C318.342 251.263 318.616 251.847 318.912 252.424C319.374 253.568 320.219 254.515 321.303 255.104C322.399 255.472 323.557 255.62 324.711 255.536C325.807 255.474 326.903 255.652 327.922 256.06C328.796 256.49 329.49 257.216 329.88 258.11C330.397 259.381 330.6 260.758 330.472 262.125C330.434 262.603 330.389 262.975 330.343 263.218C330.311 263.359 330.265 263.496 330.207 263.628Z" fill="white"/>
<path d="M311.997 200.853C311.816 201.301 311.608 201.737 311.374 202.159C310.762 203.304 310.378 204.557 310.243 205.848C310.193 206.73 310.385 207.609 310.797 208.391C311.31 209.285 311.889 210.14 312.528 210.949C313.255 211.925 313.78 213.035 314.073 214.216C314.366 215.396 314.422 216.624 314.236 217.826C314.041 219.037 313.56 220.184 312.834 221.172C312.108 222.161 311.158 222.963 310.061 223.511C309.108 223.998 308.056 224.257 306.987 224.27C305.851 224.258 304.736 223.956 303.75 223.393C302.763 222.829 301.936 222.024 301.347 221.052C301.169 220.74 301.022 220.413 300.907 220.073C300.86 219.954 300.832 219.828 300.823 219.701C301.021 220.137 301.242 220.563 301.484 220.976C302.193 222.061 303.211 222.91 304.406 223.413C305.216 223.77 306.094 223.948 306.979 223.936C307.999 223.912 308.999 223.652 309.902 223.177C310.938 222.646 311.836 221.879 312.521 220.938C313.207 219.997 313.662 218.907 313.849 217.758C314.204 215.423 313.62 213.043 312.224 211.139C311.584 210.311 311.008 209.436 310.501 208.52C310.077 207.683 309.891 206.746 309.962 205.81C310.123 204.49 310.557 203.218 311.238 202.075C311.465 201.666 311.647 201.354 311.784 201.149C311.845 201.044 311.916 200.945 311.997 200.853Z" fill="white"/>
<path d="M334.867 175.387C334.804 175.09 334.774 174.787 334.776 174.484C334.776 173.816 334.7 172.966 334.654 172.009C334.548 169.838 334.411 167.007 334.26 163.872C334.108 160.737 334.002 157.8 333.979 155.72C333.979 154.672 333.979 153.83 333.979 153.245C333.964 152.94 333.984 152.635 334.039 152.335C334.107 152.633 334.138 152.939 334.131 153.245C334.169 153.906 334.206 154.764 334.26 155.712C334.358 157.883 334.495 160.715 334.654 163.849C334.814 166.984 334.905 169.922 334.928 172.002C334.928 173.049 334.928 173.892 334.928 174.476C334.942 174.781 334.922 175.087 334.867 175.387Z" fill="#263238"/>
<path d="M334.602 165.77C334.602 165.77 335.869 181.088 334.412 182.15C326.297 187.821 315.511 190.098 311.64 190.773C311.101 190.576 310.479 190.341 309.757 190.014C309.133 189.736 308.561 189.354 308.065 188.883C307.426 188.322 306.864 187.679 306.395 186.97C306.339 186.815 306.233 186.682 306.094 186.592C305.955 186.502 305.791 186.46 305.626 186.472C305.461 186.484 305.304 186.549 305.18 186.659C305.056 186.768 304.971 186.915 304.937 187.077C304.839 187.783 305.795 189.726 307.776 191.274C309.757 192.823 305.863 192.914 304.444 192.967C303.025 193.02 298.652 193.407 298.334 193.87C297.863 194.538 298.485 195.191 299.905 195.1C301.324 195.009 305.575 195.047 305.583 195.813C305.59 196.58 298.364 196.755 298.364 196.755C298.364 196.755 296.846 196.542 296.793 197.423C296.747 199.017 304.383 198.242 305.142 198.182C305.651 198.121 305.681 198.941 305.142 198.994C304.603 199.047 297.939 198.994 297.878 200.626C297.833 201.871 304.178 200.049 305.567 200.838C306.957 201.628 300.611 201.719 300.618 202.911C300.618 203.359 300.679 203.67 304.307 203.1C306.904 202.559 309.468 201.875 311.989 201.051V201.089C311.989 201.089 349.722 197.855 348.773 180.845C348.136 169.33 348.348 171.455 347.642 165.405" fill="#B78876"/>
</svg>
